<?xml version="1.0" encoding="utf-8"?>
<!-- Generator: Adobe Illustrator 17.0.0, SVG Export Plug-In . SVG Version: 6.00 Build 0)  -->
<!DOCTYPE svg PUBLIC "-//W3C//DTD SVG 1.1//EN" "http://www.w3.org/Graphics/SVG/1.1/DTD/svg11.dtd">
<svg version="1.1" id="Capa_1" xmlns="http://www.w3.org/2000/svg" xmlns:xlink="http://www.w3.org/1999/xlink" x="0px" y="0px"
	 width="52px" height="52px" fill="#3b3b3b" viewBox="0 0 52 52" enable-background="new 0 0 52 52" xml:space="preserve">
<g>
	<path d="M12.128,11.74h26.486c0.552,0,1,0.448,1,1v26.487c0,0.552-0.448,1-1,1H12.128c-0.552,0-1-0.448-1-1V12.74
		C11.128,12.188,11.576,11.74,12.128,11.74z"/>
	<path d="M16.517,8.703c0,0.827-0.67,1.497-1.498,1.497h-0.084c-0.827,0-1.498-0.67-1.498-1.497V3.998
		c0-0.827,0.671-1.497,1.498-1.497h0.084c0.828,0,1.498,0.67,1.498,1.497V8.703z"/>
	<path d="M24.216,8.703c0,0.827-0.67,1.497-1.498,1.497h-0.085c-0.827,0-1.498-0.67-1.498-1.497V3.998
		c0-0.827,0.67-1.497,1.498-1.497h0.085c0.827,0,1.498,0.67,1.498,1.497V8.703z"/>
	<path d="M30.375,8.703c0,0.827-0.67,1.497-1.498,1.497h-0.085c-0.827,0-1.497-0.67-1.497-1.497V3.998
		c0-0.827,0.67-1.497,1.497-1.497h0.085c0.827,0,1.498,0.67,1.498,1.497V8.703z"/>
	<path d="M38.074,8.703c0,0.827-0.67,1.497-1.497,1.497h-0.086c-0.827,0-1.497-0.67-1.497-1.497V3.998
		c0-0.827,0.67-1.497,1.497-1.497h0.086c0.827,0,1.497,0.67,1.497,1.497V8.703z"/>
	<path d="M16.517,48.738c0,0.827-0.67,1.497-1.498,1.497h-0.084c-0.827,0-1.498-0.67-1.498-1.497v-4.705
		c0-0.826,0.671-1.496,1.498-1.496h0.084c0.828,0,1.498,0.67,1.498,1.496V48.738z"/>
	<path d="M24.216,48.738c0,0.827-0.67,1.497-1.498,1.497h-0.085c-0.827,0-1.498-0.67-1.498-1.497v-4.705
		c0-0.826,0.67-1.496,1.498-1.496h0.085c0.827,0,1.498,0.67,1.498,1.496V48.738z"/>
	<path d="M30.375,48.738c0,0.827-0.67,1.497-1.498,1.497h-0.085c-0.827,0-1.497-0.67-1.497-1.497v-4.705
		c0-0.826,0.67-1.496,1.497-1.496h0.085c0.827,0,1.498,0.67,1.498,1.496V48.738z"/>
	<path d="M38.074,48.738c0,0.827-0.67,1.497-1.497,1.497h-0.086c-0.827,0-1.497-0.67-1.497-1.497v-4.705
		c0-0.826,0.67-1.496,1.497-1.496h0.086c0.827,0,1.497,0.67,1.497,1.496V48.738z"/>
	<path d="M43.421,17.129c-0.827,0-1.497-0.671-1.497-1.497v-0.085c0-0.826,0.669-1.497,1.497-1.497h4.705
		c0.827,0,1.497,0.671,1.497,1.497v0.085c0,0.826-0.67,1.497-1.497,1.497H43.421z"/>
	<path d="M43.421,24.829c-0.827,0-1.497-0.671-1.497-1.498v-0.085c0-0.827,0.669-1.497,1.497-1.497h4.705
		c0.827,0,1.497,0.67,1.497,1.497v0.085c0,0.827-0.67,1.498-1.497,1.498H43.421z"/>
	<path d="M43.421,30.988c-0.827,0-1.497-0.671-1.497-1.498v-0.085c0-0.827,0.669-1.497,1.497-1.497h4.705
		c0.827,0,1.497,0.67,1.497,1.497v0.085c0,0.827-0.67,1.498-1.497,1.498H43.421z"/>
	<path d="M43.421,38.687c-0.827,0-1.497-0.671-1.497-1.496v-0.087c0-0.825,0.669-1.496,1.497-1.496h4.705
		c0.827,0,1.497,0.671,1.497,1.496v0.087c0,0.825-0.67,1.496-1.497,1.496H43.421z"/>
	<path d="M3.386,17.129c-0.827,0-1.497-0.671-1.497-1.497v-0.085c0-0.826,0.67-1.497,1.497-1.497h4.705
		c0.827,0,1.497,0.671,1.497,1.497v0.085c0,0.826-0.67,1.497-1.497,1.497H3.386z"/>
	<path d="M3.386,24.829c-0.827,0-1.497-0.671-1.497-1.498v-0.085c0-0.827,0.67-1.497,1.497-1.497h4.705
		c0.827,0,1.497,0.67,1.497,1.497v0.085c0,0.827-0.67,1.498-1.497,1.498H3.386z"/>
	<path d="M3.386,30.988c-0.827,0-1.497-0.671-1.497-1.498v-0.085c0-0.827,0.67-1.497,1.497-1.497h4.705
		c0.827,0,1.497,0.67,1.497,1.497v0.085c0,0.827-0.67,1.498-1.497,1.498H3.386z"/>
	<path d="M3.386,38.687c-0.827,0-1.497-0.671-1.497-1.496v-0.087c0-0.825,0.67-1.496,1.497-1.496h4.705
		c0.827,0,1.497,0.671,1.497,1.496v0.087c0,0.825-0.67,1.496-1.497,1.496H3.386z"/>
</g>
</svg>
